HIERARCHY
ROOT Hips
{
  OFFSET -35.4901 99.2528 17.4586
  CHANNELS 6 Xposition Yposition Zposition Zrotation Xrotation Yrotation
  JOINT LeftUpLeg
  {
    OFFSET 8.64259 1.95398 -2.38835
    CHANNELS 3 Zrotation Xrotation Yrotation
    JOINT LeftLeg
    {
      OFFSET 43.7702 0 0
      CHANNELS 3 Zrotation Xrotation Yrotation
      JOINT LeftFoot
      {
        OFFSET 40.6238 0 0
        CHANNELS 3 Zrotation Xrotation Yrotation
        JOINT LeftToeBase
        {
          OFFSET 12.7242 0 0
          CHANNELS 3 Zrotation Xrotation Yrotation
          End Site
          {
            OFFSET 0 0 0
          }
        }
      }
    }
  }
  JOINT RightUpLeg
  {
    OFFSET -8.2249 1.95398 -2.59336
    CHANNELS 3 Zrotation Xrotation Yrotation
    JOINT RightLeg
    {
      OFFSET 43.5653 0 0
      CHANNELS 3 Zrotation Xrotation Yrotation
      JOINT RightFoot
      {
        OFFSET 40.6238 0 0
        CHANNELS 3 Zrotation Xrotation Yrotation
        JOINT RightToeBase
        {
          OFFSET 12.7242 0 0
          CHANNELS 3 Zrotation Xrotation Yrotation
          End Site
          {
            OFFSET 0 0 0
          }
        }
      }
    }
  }
  JOINT Spine
  {
    OFFSET 0.165834 0.87714 6.61349
    CHANNELS 3 Zrotation Xrotation Yrotation
    JOINT Spine1
    {
      OFFSET 7.38963 1.71661e-005 0
      CHANNELS 3 Zrotation Xrotation Yrotation
      JOINT Spine2
      {
        OFFSET 11.9445 1.14441e-005 0
        CHANNELS 3 Zrotation Xrotation Yrotation
        JOINT Spine3
        {
          OFFSET 14.7254 4.19617e-005 0
          CHANNELS 3 Zrotation Xrotation Yrotation
          JOINT Spine4
          {
            OFFSET 10.9679 0 0
            CHANNELS 3 Zrotation Xrotation Yrotation
            JOINT RightShoulder
            {
              OFFSET 2.46616 -1.6653 3.69651
              CHANNELS 3 Zrotation Xrotation Yrotation
              JOINT RightArm
              {
                OFFSET 13.0012 0 0
                CHANNELS 3 Zrotation Xrotation Yrotation
                JOINT RightForeArm
                {
                  OFFSET 28.7848 1.52588e-005 0
                  CHANNELS 3 Zrotation Xrotation Yrotation
                  JOINT RightHand
                  {
                    OFFSET 26.5688 1.52588e-005 0
                    CHANNELS 3 Zrotation Xrotation Yrotation
                    End Site
                    {
                      OFFSET 0 0 0
                    }
                  }
                }
              }
            }
            JOINT LeftShoulder
            {
              OFFSET 2.38034 -1.29275 -3.7523
              CHANNELS 3 Zrotation Xrotation Yrotation
              JOINT LeftArm
              {
                OFFSET 16.3182 6.10351e-005 0
                CHANNELS 3 Zrotation Xrotation Yrotation
                JOINT LeftForeArm
                {
                  OFFSET 27.0901 0 0
                  CHANNELS 3 Zrotation Xrotation Yrotation
                  JOINT LeftHand
                  {
                    OFFSET 24.5451 1.52588e-005 0
                    CHANNELS 3 Zrotation Xrotation Yrotation
                    End Site
                    {
                      OFFSET 0 0 0
                    }
                  }
                }
              }
            }
            JOINT Neck
            {
              OFFSET 5.0226 -0.0266342 0
              CHANNELS 3 Zrotation Xrotation Yrotation
              JOINT Head
              {
                OFFSET 6.69364 2.86102e-005 0
                CHANNELS 3 Zrotation Xrotation Yrotation
                End Site
                {
                  OFFSET 0 0 0
                }
              }
            }
          }
        }
      }
    }
  }
}
MOTION
Frames:	10
Frame Time:	0.0416667
40.3931 99.2602 -334.661 -162.826 -84.2062 -163.229 -175.452 9.5283 88.7551 4.05096 42.6727 -5.98331 51.4673 -5.29556 24.6638 167.765 1.99725 10.5343 171.562 6.89949 87.6581 -28.0322 -11.1232 -1.87406 68.1495 -1.40492 4.41896 32.988 -1.08393 2.59646 1.0472 7.26299 -89.8054 12.3486 2.17343 0.142058 0.679436 2.17757 0.0462099 -21.8688 2.03021 0.788954 -1.85616 2.0302 0.788951 102.03 -31.9806 -82.3233 45.8543 -21.5875 -9.01766 2.62849 -37.7801 -14.5224 -26.3285 -0.432351 -7.6 -85.275 -48.1692 85.5732 -23.0696 22.0765 -15.3308 -0.06795 15.0101 -9.15622 -2.27121 -0.0926107 -6.72388 2.49833 -2.03437 -3.7157 -5.41868 -1.39723 -0.407941 
40.4637 99.3531 -334.631 -159.919 -84.1963 -160.373 -176.004 9.05914 88.5273 3.13016 41.6318 -4.86363 51.559 -5.44225 24.2782 168.107 3.14024 11.8982 171.489 6.12662 87.5392 -26.2576 -11.3265 -1.85175 69.0787 -2.08938 3.57865 31.3119 -1.43637 3.64676 1.06867 7.23969 -89.8138 12.3955 2.21204 0.119608 0.726405 2.21516 0.022078 -21.8224 2.07378 0.779162 -1.80978 2.07379 0.779172 98.1897 -34.5087 -89.6677 43.9499 -17.542 -6.19308 1.43481 -36.3975 -15.5271 -25.9368 -0.33888 -7.90152 -85.4846 -48.4002 85.2835 -23.2476 21.9017 -14.9803 -0.176747 15.2035 -8.92802 -1.46605 -0.114848 -7.45052 1.70644 -2.23327 -3.4908 -5.22361 -1.64452 -0.78226 
40.4129 99.5761 -334.605 -158.306 -84.0261 -158.712 -176.357 7.31165 88.66 2.49614 40.4255 -3.89356 51.2368 -5.81806 23.34 168.397 5.61498 14.866 171.169 3.29816 87.8053 -21.033 -12.5137 -1.57974 72.8049 -4.73147 0.141101 23.6915 -2.08304 5.64736 1.09205 7.27269 -89.8302 12.3299 2.25084 0.084423 0.660897 2.25237 -0.0147838 -21.8886 2.12135 0.75729 -1.87593 2.12136 0.757287 98.0062 -34.7902 -89.9775 43.6492 -17.0986 -5.89285 1.39441 -36.5232 -16.1058 -26.2418 -0.429964 -7.41553 -85.6126 -48.3022 85.0725 -23.4299 21.9496 -15.184 -0.551748 14.6693 -8.36971 -1.71541 -0.113417 -8.6135 2.70834 -2.48624 -2.78866 -6.89389 -1.92909 -1.7091 
40.3202 100.179 -334.556 -156.667 -83.9886 -156.868 -176.629 4.9458 89.0267 1.75776 38.6 -2.8407 50.7137 -6.26293 21.7213 165.597 12.3397 23.8768 171.155 1.43505 87.9539 -17.2608 -12.6981 -1.52838 70.5538 -4.1528 0.442944 23.8481 -1.97902 5.36218 1.09168 7.26261 -89.8725 12.3509 2.22994 0.00163082 0.68184 2.22786 -0.0965687 -21.8677 2.12632 0.672063 -1.85502 2.12631 0.672052 97.9556 -34.6401 -90.092 43.5846 -17.0866 -5.83011 2.23146 -36.2617 -15.9093 -26.2329 -0.461057 -7.19272 -85.739 -48.4693 84.9032 -23.3516 22.3875 -14.9048 -0.770513 14.1056 -8.59484 -2.10445 -0.102965 -8.66133 2.76033 -2.85317 -2.40165 -7.78836 -2.31549 -2.18003 
40.1845 100.724 -334.373 -154.646 -83.9143 -154.815 -177.124 2.05591 89.0636 0.767779 35.4476 -1.39747 50.1306 -6.65056 19.2619 152.675 20.7433 41.9517 170.997 -0.407097 87.9732 -13.5371 -12.8365 -1.40974 68.8072 -3.81714 0.884558 23.6548 -1.97052 5.34294 1.08051 7.28214 -89.8937 12.3121 2.19777 -0.035962 0.643042 2.19406 -0.132707 -21.9062 2.10692 0.626522 -1.89354 2.10693 0.626518 97.7792 -34.8292 -90.4041 43.2002 -17.3604 -5.90407 2.31473 -36.2985 -16.0699 -26.5821 -0.714525 -5.86954 -85.6163 -48.7692 85.1349 -23.2633 21.9805 -15.1385 -0.573136 14.7741 -8.38565 -0.0805473 -0.135271 -6.60625 3.43019 -3.27246 -2.05452 -8.8951 -2.74648 -2.30077 
39.843 101.121 -334.187 -153.109 -84.2146 -153.1 -176.679 -0.00660691 90.0013 -0.634519 31.6183 -1.36387 49.8612 -6.47845 16.0031 122.419 15.6656 63.4131 171.281 -2.13816 88.5311 -9.60612 -12.8428 -1.4369 67.065 -3.51248 0.671541 23.5591 -1.90715 5.19323 1.06447 7.24577 -89.9233 12.3853 2.15171 -0.0918126 0.716112 2.14558 -0.186473 -21.8327 2.07977 0.559391 -1.82003 2.07977 0.559393 97.6138 -34.9773 -90.6991 42.823 -17.5157 -5.75147 2.52386 -36.6547 -16.0076 -26.8937 -0.633092 -6.32413 -85.9218 -48.749 84.6647 -23.1331 21.8861 -15.0439 -0.629828 14.3986 -8.25638 -0.334449 -0.133893 -6.80205 3.64586 -3.58552 -1.82349 -9.60431 -3.05899 -2.57388 
39.276 101.229 -333.795 -153.102 -84.2776 -153.322 -176.73 -1.67005 90.0995 -3.8701 24.4381 -0.78343 50.517 -5.48137 10.9836 88.1157 -1.96118 58.8143 171.305 -2.79446 88.5856 -8.83364 -12.8589 -1.41332 66.9444 -3.60727 0.353513 23.6748 -1.92326 5.22933 1.01294 7.26068 -89.9364 12.3555 2.0431 -0.10497 0.686136 2.0365 -0.194831 -21.8614 1.98016 0.514171 -1.84873 1.98015 0.51416 97.1634 -34.2247 -91.6657 43.2335 -16.8904 -5.23716 0.760178 -36.2408 -17.6248 -25.7749 -0.68378 -6.03977 -85.7062 -49.0703 85.0408 -23.0285 21.7235 -15.1759 -0.510676 14.3439 -8.41281 -0.763054 -0.13181 -7.32081 4.03384 -3.4911 -0.805632 -10.4868 -3.06873 -3.23814 
38.5762 101.176 -333.34 -155.033 -84.552 -155.309 -176.712 -1.70937 90.852 -8.88383 13.5665 -0.489896 52.165 -3.80799 3.35026 61.5652 -10.5536 34.8034 171.237 -2.90085 88.8439 -9.12209 -12.669 -1.10688 67.903 -4.01349 0.306258 22.5166 -1.88221 5.14571 0.957966 7.26337 -89.9461 12.3497 1.92931 -0.111102 0.680195 1.92255 -0.195949 -21.866 1.87347 0.474079 -1.85336 1.87347 0.47408 96.2809 -33.9789 -93.3914 42.9533 -15.9618 -4.71974 1.21574 -35.4505 -17.3449 -26.2618 -0.507869 -6.82898 -85.8206 -48.8218 84.8301 -23.6075 21.1227 -15.0664 -0.18602 14.6121 -8.2766 -1.31553 -0.119971 -7.57013 3.99271 -3.49611 -0.936964 -10.827 -3.07494 -2.82065 
37.4774 101.18 -332.702 -159.204 -84.6529 -159.356 -175.967 -2.62368 92.363 -11.4145 0.783026 -0.981923 52.3667 -2.44984 -6.78828 50.7422 -7.49991 18.0344 171.684 -4.17323 89.6511 -7.93867 -11.7568 -1.07437 68.0654 -4.25656 0.088187 22.2199 -2.00011 5.41703 0.89885 7.29168 -89.9976 12.2935 1.78752 -0.196627 0.623741 1.77714 -0.27513 -21.9211 1.76395 0.34987 -1.90842 1.76394 0.349859 95.6692 -33.3442 -94.6877 42.6944 -15.9475 -4.73162 1.90045 -34.8557 -16.5176 -25.7554 -0.527046 -6.64908 -85.6154 -49.434 85.2314 -23.1909 20.6668 -15.112 -0.177095 13.6492 -8.13713 -1.07362 -0.135975 -8.37703 3.3641 -3.40752 -0.788331 -10.7844 -3.06527 -2.24191 
36.2934 101.051 -331.9 -169.932 -84.7209 -170.79 -175.855 -3.66552 92.8669 -12.5876 -9.41663 -1.05182 51.4911 -1.31564 -15.5997 46.7706 -4.35463 8.71059 171.143 -4.18419 89.3664 -9.64996 -11.2772 -0.642147 69.6139 -4.6931 -0.0860172 21.9025 -2.00808 5.43619 0.76296 7.33781 -89.9411 12.1997 1.54445 -0.0544966 0.529659 1.54055 -0.12244 -22.0125 1.4894 0.412303 -1.99986 1.4894 0.412289 93.8874 -33.1552 -98.1686 42.4661 -14.6121 -3.90473 2.04713 -34.7986 -16.0829 -25.5652 -0.506337 -6.75194 -85.1466 -49.949 86.0118 -23.1552 19.7275 -14.6311 0.418092 13.3091 -8.66334 -1.53524 -0.112311 -8.07606 2.08035 -2.89878 -0.782284 -9.98536 -2.64783 -1.42478 
